<?xml version="1.0" encoding="UTF-8" standalone="no"?>
<!DOCTYPE svg PUBLIC "-//W3C//DTD SVG 1.1//EN"
 "http://www.w3.org/Graphics/SVG/1.1/DTD/svg11.dtd">
<!-- Generated by graphviz version 2.40.1 (20161225.0304)
 -->
<!-- Title: %3 Pages: 1 -->
<svg width="1781pt" height="1274pt"
 viewBox="0.00 0.00 1780.70 1274.00" xmlns="http://www.w3.org/2000/svg" xmlns:xlink="http://www.w3.org/1999/xlink">
<g id="graph0" class="graph" transform="scale(1 1) rotate(0) translate(4 1270)">
<title>%3</title>
<polygon fill="#ffffff" stroke="transparent" points="-4,4 -4,-1270 1776.6988,-1270 1776.6988,4 -4,4"/>
<g id="clust1" class="cluster">
<title>cluster&#45;nid&#45;02</title>
<polygon fill="none" stroke="#cccccc" points="8,-279 8,-345 435.1061,-345 435.1061,-279 8,-279"/>
</g>
<g id="clust2" class="cluster">
<title>cluster&#45;nid&#45;03</title>
<polygon fill="none" stroke="#cccccc" points="8,-198 8,-264 435.1061,-264 435.1061,-198 8,-198"/>
</g>
<g id="clust5" class="cluster">
<title>cluster&#45;nid&#45;06</title>
<polygon fill="none" stroke="#cccccc" points="355.5023,-59 355.5023,-125 444.7099,-125 444.7099,-59 355.5023,-59"/>
</g>
<g id="clust6" class="cluster">
<title>cluster&#45;nid&#45;07</title>
<polygon fill="none" stroke="#cccccc" points="1101.0171,-1179 1101.0171,-1245 1475.4912,-1245 1475.4912,-1179 1101.0171,-1179"/>
</g>
<g id="clust7" class="cluster">
<title>cluster&#45;nid&#45;08</title>
<polygon fill="none" stroke="#cccccc" points="1395.8874,-657 1395.8874,-723 1764.6988,-723 1764.6988,-657 1395.8874,-657"/>
</g>
<g id="clust8" class="cluster">
<title>cluster&#45;nid&#45;09</title>
<polygon fill="none" stroke="#cccccc" points="1395.8874,-973 1395.8874,-1039 1764.6988,-1039 1764.6988,-973 1395.8874,-973"/>
</g>
<g id="clust18" class="cluster">
<title>cluster&#45;nid&#45;12&#45;out</title>
<polygon fill="none" stroke="#cccccc" points="320.3405,-994 320.3405,-1074 479.8717,-1074 479.8717,-994 320.3405,-994"/>
</g>
<g id="clust20" class="cluster">
<title>cluster&#45;nid&#45;13&#45;out</title>
<polygon fill="none" stroke="#cccccc" points="308.4835,-1090 308.4835,-1170 491.7286,-1170 491.7286,-1090 308.4835,-1090"/>
</g>
<g id="clust21" class="cluster">
<title>cluster&#45;nid&#45;14&#45;in</title>
<polygon fill="none" stroke="#cccccc" points="703.3429,-448 703.3429,-528 885.4122,-528 885.4122,-448 703.3429,-448"/>
</g>
<g id="clust24" class="cluster">
<title>cluster&#45;nid&#45;16&#45;in</title>
<polygon fill="none" stroke="#cccccc" points="704.129,-272 704.129,-352 884.6261,-352 884.6261,-272 704.129,-272"/>
</g>
<g id="clust26" class="cluster">
<title>cluster&#45;nid&#45;17&#45;in</title>
<polygon fill="none" stroke="#cccccc" points="704.129,-96 704.129,-176 884.6261,-176 884.6261,-96 704.129,-96"/>
</g>
<g id="clust29" class="cluster">
<title>cluster&#45;nid&#45;18&#45;out</title>
<polygon fill="none" stroke="#cccccc" points="309.8576,-1178 309.8576,-1258 490.3546,-1258 490.3546,-1178 309.8576,-1178"/>
</g>
<g id="clust31" class="cluster">
<title>cluster&#45;nid&#45;19&#45;out</title>
<polygon fill="none" stroke="#cccccc" points="318.3991,-530 318.3991,-610 481.8131,-610 481.8131,-530 318.3991,-530"/>
</g>
<g id="clust33" class="cluster">
<title>cluster&#45;nid&#45;1a&#45;out</title>
<polygon fill="none" stroke="#cccccc" points="309.8576,-891 309.8576,-971 490.3546,-971 490.3546,-891 309.8576,-891"/>
</g>
<g id="clust34" class="cluster">
<title>cluster&#45;nid&#45;1b&#45;in</title>
<polygon fill="none" stroke="#cccccc" points="704.129,-184 704.129,-264 1171.0171,-264 1171.0171,-184 704.129,-184"/>
</g>
<g id="clust35" class="cluster">
<title>cluster&#45;nid&#45;1b&#45;out</title>
<polygon fill="none" stroke="#cccccc" points="17.6038,-772 17.6038,-852 490.3546,-852 490.3546,-772 17.6038,-772"/>
</g>
<g id="clust38" class="cluster">
<title>cluster&#45;nid&#45;1d&#45;out</title>
<polygon fill="none" stroke="#cccccc" points="297.2076,-622 297.2076,-702 503.0045,-702 503.0045,-622 297.2076,-622"/>
</g>
<g id="clust39" class="cluster">
<title>cluster&#45;nid&#45;1e&#45;in</title>
<polygon fill="none" stroke="#cccccc" points="704.129,-8 704.129,-88 884.6261,-88 884.6261,-8 704.129,-8"/>
</g>
<g id="clust43" class="cluster">
<title>cluster&#45;nid&#45;21&#45;in</title>
<polygon fill="none" stroke="#cccccc" points="703.0045,-360 703.0045,-440 885.7506,-440 885.7506,-360 703.0045,-360"/>
</g>
<g id="clust45" class="cluster">
<title>cluster&#45;nid&#45;22</title>
<polygon fill="none" stroke="#cccccc" points="705.7451,-852 705.7451,-1160 1186.2835,-1160 1186.2835,-852 705.7451,-852"/>
</g>
<g id="clust46" class="cluster">
<title>cluster&#45;nid&#45;23</title>
<polygon fill="none" stroke="#cccccc" points="705.7451,-536 705.7451,-844 1186.2835,-844 1186.2835,-536 705.7451,-536"/>
</g>
<g id="clust47" class="cluster">
<title>cluster&#45;nid&#45;24</title>
<polygon fill="none" stroke="#cccccc" points="732.7094,-1168 732.7094,-1256 856.0457,-1256 856.0457,-1168 732.7094,-1168"/>
</g>
<!-- nid&#45;02 -->
<g id="node1" class="node">
<title>nid&#45;02</title>
<ellipse fill="none" stroke="#0000ff" cx="52.6038" cy="-312" rx="36.7079" ry="25.4118"/>
<text text-anchor="middle" x="52.6038" y="-314.8" font-family="Times,serif" font-size="14.00" fill="#000000">0x02</text>
<text text-anchor="middle" x="52.6038" y="-300.8" font-family="Times,serif" font-size="14.00" fill="#000000">Stereo</text>
</g>
<!-- nid&#45;02&#45;ampout -->
<g id="node2" class="node">
<title>nid&#45;02&#45;ampout</title>
<polygon fill="none" stroke="#0000ff" points="427.1061,-312 386.6061,-330 386.6061,-294 427.1061,-312"/>
</g>
<!-- nid&#45;02&#45;&gt;nid&#45;02&#45;ampout -->
<g id="edge1" class="edge">
<title>nid&#45;02&#45;&gt;nid&#45;02&#45;ampout</title>
<path fill="none" stroke="#0000ff" d="M89.4637,-312C163.0731,-312 325.95,-312 381.2847,-312"/>
<polygon fill="#0000ff" stroke="#0000ff" points="381.2973,-313.7501 386.2973,-312 381.2973,-310.2501 381.2973,-313.7501"/>
</g>
<!-- nid&#45;14&#45;in -->
<g id="node17" class="node">
<title>nid&#45;14&#45;in</title>
<polygon fill="none" stroke="#00ff00" points="877.4469,-520 711.3082,-520 711.3082,-456 877.4469,-456 877.4469,-520"/>
<text text-anchor="middle" x="794.3776" y="-504.8" font-family="Times,serif" font-size="14.00" fill="#000000">0x14</text>
<text text-anchor="middle" x="794.3776" y="-490.8" font-family="Times,serif" font-size="14.00" fill="#000000">[Fixed] Speaker at Int N/A</text>
<text text-anchor="middle" x="794.3776" y="-476.8" font-family="Times,serif" font-size="14.00" fill="#000000">Stereo</text>
<text text-anchor="middle" x="794.3776" y="-462.8" font-family="Times,serif" font-size="14.00" fill="#000000">OUT EAPD Detect</text>
</g>
<!-- nid&#45;02&#45;ampout&#45;&gt;nid&#45;14&#45;in -->
<g id="edge9" class="edge">
<title>nid&#45;02&#45;ampout&#45;&gt;nid&#45;14&#45;in</title>
<path fill="none" stroke="#333333" d="M413.6778,-318.0583C460.2453,-338.8457 616.0151,-408.3803 713.2767,-451.7972"/>
<polygon fill="#333333" stroke="#333333" points="711.9427,-455.0345 722.5009,-455.9148 714.7961,-448.6424 711.9427,-455.0345"/>
</g>
<!-- nid&#45;16&#45;in -->
<g id="node18" class="node">
<title>nid&#45;16&#45;in</title>
<polygon fill="none" stroke="#00ff00" points="876.8754,-344 711.8797,-344 711.8797,-280 876.8754,-280 876.8754,-344"/>
<text text-anchor="middle" x="794.3776" y="-328.8" font-family="Times,serif" font-size="14.00" fill="#000000">0x16</text>
<text text-anchor="middle" x="794.3776" y="-314.8" font-family="Times,serif" font-size="14.00" fill="#000000">[N/A] Speaker at Ext Rear</text>
<text text-anchor="middle" x="794.3776" y="-300.8" font-family="Times,serif" font-size="14.00" fill="#000000">Stereo</text>
<text text-anchor="middle" x="794.3776" y="-286.8" font-family="Times,serif" font-size="14.00" fill="#000000">OUT HP Detect</text>
</g>
<!-- nid&#45;02&#45;ampout&#45;&gt;nid&#45;16&#45;in -->
<g id="edge10" class="edge">
<title>nid&#45;02&#45;ampout&#45;&gt;nid&#45;16&#45;in</title>
<path fill="none" stroke="#333333" d="M427.206,-312C482.9072,-312 612.5177,-312 701.8242,-312"/>
<polygon fill="#333333" stroke="#333333" points="701.9636,-315.5001 711.9636,-312 701.9635,-308.5001 701.9636,-315.5001"/>
</g>
<!-- nid&#45;17&#45;in -->
<g id="node19" class="node">
<title>nid&#45;17&#45;in</title>
<polygon fill="none" stroke="#00ff00" points="876.8754,-168 711.8797,-168 711.8797,-104 876.8754,-104 876.8754,-168"/>
<text text-anchor="middle" x="794.3776" y="-152.8" font-family="Times,serif" font-size="14.00" fill="#000000">0x17</text>
<text text-anchor="middle" x="794.3776" y="-138.8" font-family="Times,serif" font-size="14.00" fill="#000000">[N/A] Speaker at Ext Rear</text>
<text text-anchor="middle" x="794.3776" y="-124.8" font-family="Times,serif" font-size="14.00" fill="#000000">Stereo</text>
<text text-anchor="middle" x="794.3776" y="-110.8" font-family="Times,serif" font-size="14.00" fill="#000000">OUT HP Detect</text>
</g>
<!-- nid&#45;02&#45;ampout&#45;&gt;nid&#45;17&#45;in -->
<g id="edge12" class="edge">
<title>nid&#45;02&#45;ampout&#45;&gt;nid&#45;17&#45;in</title>
<path fill="none" stroke="#333333" d="M414.1274,-306.1159C433.9694,-297.7638 471.3526,-281.935 503.0045,-268 575.2524,-236.1923 657.1011,-199.0107 715.6142,-172.2295"/>
<polygon fill="#333333" stroke="#333333" points="717.165,-175.3689 724.7997,-168.023 714.2505,-169.0045 717.165,-175.3689"/>
</g>
<!-- nid&#45;1b&#45;in -->
<g id="node23" class="node">
<title>nid&#45;1b&#45;in</title>
<polygon fill="none" stroke="#00ff00" points="876.8754,-256 711.8797,-256 711.8797,-192 876.8754,-192 876.8754,-256"/>
<text text-anchor="middle" x="794.3776" y="-240.8" font-family="Times,serif" font-size="14.00" fill="#000000">0x1b</text>
<text text-anchor="middle" x="794.3776" y="-226.8" font-family="Times,serif" font-size="14.00" fill="#000000">[N/A] Speaker at Ext Rear</text>
<text text-anchor="middle" x="794.3776" y="-212.8" font-family="Times,serif" font-size="14.00" fill="#000000">Stereo</text>
<text text-anchor="middle" x="794.3776" y="-198.8" font-family="Times,serif" font-size="14.00" fill="#000000">IN OUT EAPD Detect</text>
</g>
<!-- nid&#45;02&#45;ampout&#45;&gt;nid&#45;1b&#45;in -->
<g id="edge17" class="edge">
<title>nid&#45;02&#45;ampout&#45;&gt;nid&#45;1b&#45;in</title>
<path fill="none" stroke="#333333" d="M418.3319,-307.9321C467.8447,-296.881 607.4503,-265.7215 701.9061,-244.6393"/>
<polygon fill="#333333" stroke="#333333" points="702.7613,-248.0346 711.7587,-242.4402 701.2363,-241.2027 702.7613,-248.0346"/>
</g>
<!-- nid&#45;21&#45;in -->
<g id="node29" class="node">
<title>nid&#45;21&#45;in</title>
<polygon fill="none" stroke="#00ff00" points="877.6239,-432 711.1313,-432 711.1313,-368 877.6239,-368 877.6239,-432"/>
<text text-anchor="middle" x="794.3776" y="-416.8" font-family="Times,serif" font-size="14.00" fill="#000000">0x21</text>
<text text-anchor="middle" x="794.3776" y="-402.8" font-family="Times,serif" font-size="14.00" fill="#000000">[Jack] HP Out at Ext Right</text>
<text text-anchor="middle" x="794.3776" y="-388.8" font-family="Times,serif" font-size="14.00" fill="#000000">Stereo</text>
<text text-anchor="middle" x="794.3776" y="-374.8" font-family="Times,serif" font-size="14.00" fill="#000000">OUT HP EAPD Detect</text>
</g>
<!-- nid&#45;02&#45;ampout&#45;&gt;nid&#45;21&#45;in -->
<g id="edge20" class="edge">
<title>nid&#45;02&#45;ampout&#45;&gt;nid&#45;21&#45;in</title>
<path fill="none" stroke="#333333" d="M418.3319,-316.0679C467.6984,-327.0864 606.6263,-358.0946 701.0678,-379.1736"/>
<polygon fill="#333333" stroke="#333333" points="700.3991,-382.6104 710.9214,-381.3729 701.924,-375.7785 700.3991,-382.6104"/>
</g>
<!-- nid&#45;03 -->
<g id="node3" class="node">
<title>nid&#45;03</title>
<ellipse fill="none" stroke="#0000ff" cx="52.6038" cy="-231" rx="36.7079" ry="25.4118"/>
<text text-anchor="middle" x="52.6038" y="-233.8" font-family="Times,serif" font-size="14.00" fill="#000000">0x03</text>
<text text-anchor="middle" x="52.6038" y="-219.8" font-family="Times,serif" font-size="14.00" fill="#000000">Stereo</text>
</g>
<!-- nid&#45;03&#45;ampout -->
<g id="node4" class="node">
<title>nid&#45;03&#45;ampout</title>
<polygon fill="none" stroke="#0000ff" points="427.1061,-231 386.6061,-249 386.6061,-213 427.1061,-231"/>
</g>
<!-- nid&#45;03&#45;&gt;nid&#45;03&#45;ampout -->
<g id="edge2" class="edge">
<title>nid&#45;03&#45;&gt;nid&#45;03&#45;ampout</title>
<path fill="none" stroke="#0000ff" d="M89.4637,-231C163.0731,-231 325.95,-231 381.2847,-231"/>
<polygon fill="#0000ff" stroke="#0000ff" points="381.2973,-232.7501 386.2973,-231 381.2973,-229.2501 381.2973,-232.7501"/>
</g>
<!-- nid&#45;03&#45;ampout&#45;&gt;nid&#45;16&#45;in -->
<g id="edge11" class="edge">
<title>nid&#45;03&#45;ampout&#45;&gt;nid&#45;16&#45;in</title>
<path fill="none" stroke="#c0c0c0" stroke-dasharray="5,2" d="M418.5938,-234.7982C468.367,-245.0237 607.7937,-273.6678 702.0861,-293.0394"/>
<polygon fill="#c0c0c0" stroke="#c0c0c0" points="701.4216,-296.4759 711.9214,-295.06 702.8303,-289.6191 701.4216,-296.4759"/>
</g>
<!-- nid&#45;03&#45;ampout&#45;&gt;nid&#45;17&#45;in -->
<g id="edge13" class="edge">
<title>nid&#45;03&#45;ampout&#45;&gt;nid&#45;17&#45;in</title>
<path fill="none" stroke="#c0c0c0" stroke-dasharray="5,2" d="M417.8131,-226.7335C466.8729,-214.9125 607.1769,-181.1061 701.9655,-158.2667"/>
<polygon fill="#c0c0c0" stroke="#c0c0c0" points="702.9501,-161.6298 711.852,-155.8846 701.3103,-154.8245 702.9501,-161.6298"/>
</g>
<!-- nid&#45;03&#45;ampout&#45;&gt;nid&#45;1b&#45;in -->
<g id="edge18" class="edge">
<title>nid&#45;03&#45;ampout&#45;&gt;nid&#45;1b&#45;in</title>
<path fill="none" stroke="#c0c0c0" stroke-dasharray="5,2" d="M426.2807,-230.5353C481.428,-229.5562 611.8686,-227.2403 701.6684,-225.646"/>
<polygon fill="#c0c0c0" stroke="#c0c0c0" points="701.927,-229.142 711.8632,-225.465 701.8026,-222.1431 701.927,-229.142"/>
</g>
<!-- nid&#45;03&#45;ampout&#45;&gt;nid&#45;21&#45;in -->
<g id="edge21" class="edge">
<title>nid&#45;03&#45;ampout&#45;&gt;nid&#45;21&#45;in</title>
<path fill="none" stroke="#c0c0c0" stroke-dasharray="5,2" d="M414.0888,-236.9729C433.885,-245.4305 471.2141,-261.384 503.0045,-275 572.8627,-304.9206 652.1182,-338.9253 710.3161,-363.9063"/>
<polygon fill="#c0c0c0" stroke="#c0c0c0" points="709.265,-367.2638 719.8347,-367.9922 712.0262,-360.8314 709.265,-367.2638"/>
</g>
<!-- nid&#45;06 -->
<g id="node5" class="node">
<title>nid&#45;06</title>
<ellipse fill="none" stroke="#0000ff" cx="400.1061" cy="-92" rx="36.7079" ry="25.4118"/>
<text text-anchor="middle" x="400.1061" y="-94.8" font-family="Times,serif" font-size="14.00" fill="#000000">0x06</text>
<text text-anchor="middle" x="400.1061" y="-80.8" font-family="Times,serif" font-size="14.00" fill="#000000">Stereo</text>
</g>
<!-- nid&#45;06&#45;&gt;nid&#45;17&#45;in -->
<g id="edge14" class="edge">
<title>nid&#45;06&#45;&gt;nid&#45;17&#45;in</title>
<path fill="none" stroke="#c0c0c0" stroke-dasharray="5,2" d="M436.4915,-96.0605C496.3026,-102.7354 617.1993,-116.2272 701.8574,-125.6749"/>
<polygon fill="#c0c0c0" stroke="#c0c0c0" points="701.6689,-129.1755 711.9954,-126.8063 702.4453,-122.2187 701.6689,-129.1755"/>
</g>
<!-- nid&#45;1e&#45;in -->
<g id="node28" class="node">
<title>nid&#45;1e&#45;in</title>
<polygon fill="none" stroke="#00ff00" points="876.8754,-80 711.8797,-80 711.8797,-16 876.8754,-16 876.8754,-80"/>
<text text-anchor="middle" x="794.3776" y="-64.8" font-family="Times,serif" font-size="14.00" fill="#000000">0x1e</text>
<text text-anchor="middle" x="794.3776" y="-50.8" font-family="Times,serif" font-size="14.00" fill="#000000">[N/A] Speaker at Ext Rear</text>
<text text-anchor="middle" x="794.3776" y="-36.8" font-family="Times,serif" font-size="14.00" fill="#000000">Stereo</text>
<text text-anchor="middle" x="794.3776" y="-22.8" font-family="Times,serif" font-size="14.00" fill="#000000">OUT</text>
</g>
<!-- nid&#45;06&#45;&gt;nid&#45;1e&#45;in -->
<g id="edge19" class="edge">
<title>nid&#45;06&#45;&gt;nid&#45;1e&#45;in</title>
<path fill="none" stroke="#333333" d="M436.4915,-87.9395C496.3026,-81.2646 617.1993,-67.7728 701.8574,-58.3251"/>
<polygon fill="#333333" stroke="#333333" points="702.4453,-61.7813 711.9954,-57.1937 701.6689,-54.8245 702.4453,-61.7813"/>
</g>
<!-- nid&#45;07 -->
<g id="node6" class="node">
<title>nid&#45;07</title>
<ellipse fill="none" stroke="#ff0000" cx="1430.8874" cy="-1212" rx="36.7079" ry="25.4118"/>
<text text-anchor="middle" x="1430.8874" y="-1214.8" font-family="Times,serif" font-size="14.00" fill="#000000">0x07</text>
<text text-anchor="middle" x="1430.8874" y="-1200.8" font-family="Times,serif" font-size="14.00" fill="#000000">Stereo</text>
</g>
<!-- nid&#45;07&#45;ampin -->
<g id="node7" class="node">
<title>nid&#45;07&#45;ampin</title>
<polygon fill="none" stroke="#c8c8c8" points="1163.0171,-1212 1122.5171,-1230 1122.5171,-1194 1163.0171,-1212"/>
</g>
<!-- nid&#45;07&#45;ampin&#45;&gt;nid&#45;07 -->
<g id="edge3" class="edge">
<title>nid&#45;07&#45;ampin&#45;&gt;nid&#45;07</title>
<path fill="none" stroke="#c8c8c8" d="M1163.2292,-1212C1214.955,-1212 1327.7686,-1212 1389.125,-1212"/>
<polygon fill="#c8c8c8" stroke="#c8c8c8" points="1389.1752,-1213.7501 1394.1752,-1212 1389.1751,-1210.2501 1389.1752,-1213.7501"/>
</g>
<!-- nid&#45;24 -->
<g id="node8" class="node">
<title>nid&#45;24</title>
<polygon fill="none" stroke="#000000" points="848.2145,-1248 762.572,-1248 740.5407,-1176 826.1831,-1176 848.2145,-1248"/>
<text text-anchor="middle" x="794.3776" y="-1214.8" font-family="Times,serif" font-size="14.00" fill="#000000">0x24</text>
<text text-anchor="middle" x="794.3776" y="-1200.8" font-family="Times,serif" font-size="14.00" fill="#000000">Stereo</text>
</g>
<!-- nid&#45;24&#45;&gt;nid&#45;07&#45;ampin -->
<g id="edge4" class="edge">
<title>nid&#45;24&#45;&gt;nid&#45;07&#45;ampin</title>
<path fill="none" stroke="#333333" d="M837.3005,-1212C910.05,-1212 1055.2161,-1212 1112.2375,-1212"/>
<polygon fill="#333333" stroke="#333333" points="1112.419,-1215.5001 1122.4189,-1212 1112.4189,-1208.5001 1112.419,-1215.5001"/>
</g>
<!-- nid&#45;08 -->
<g id="node9" class="node">
<title>nid&#45;08</title>
<ellipse fill="none" stroke="#ff0000" cx="1720.095" cy="-690" rx="36.7079" ry="25.4118"/>
<text text-anchor="middle" x="1720.095" y="-692.8" font-family="Times,serif" font-size="14.00" fill="#000000">0x08</text>
<text text-anchor="middle" x="1720.095" y="-678.8" font-family="Times,serif" font-size="14.00" fill="#000000">Stereo</text>
</g>
<!-- nid&#45;08&#45;ampin -->
<g id="node10" class="node">
<title>nid&#45;08&#45;ampin</title>
<polygon fill="none" stroke="#3232f1" points="1457.8874,-690 1417.3874,-708 1417.3874,-672 1457.8874,-690"/>
</g>
<!-- nid&#45;08&#45;ampin&#45;&gt;nid&#45;08 -->
<g id="edge5" class="edge">
<title>nid&#45;08&#45;ampin&#45;&gt;nid&#45;08</title>
<path fill="none" stroke="#3232f1" d="M1458.0953,-690C1508.7347,-690 1617.7594,-690 1677.9817,-690"/>
<polygon fill="#3232f1" stroke="#3232f1" points="1678.2981,-691.7501 1683.2981,-690 1678.2981,-688.2501 1678.2981,-691.7501"/>
</g>
<!-- nid&#45;23 -->
<g id="node11" class="node">
<title>nid&#45;23</title>
<polygon fill="none" stroke="#000000" points="1178.0513,-690 1157.0342,-719.2881 1115,-719.2881 1093.9829,-690 1115,-660.7119 1157.0342,-660.7119 1178.0513,-690"/>
<text text-anchor="middle" x="1136.0171" y="-692.8" font-family="Times,serif" font-size="14.00" fill="#000000">0x23</text>
<text text-anchor="middle" x="1136.0171" y="-678.8" font-family="Times,serif" font-size="14.00" fill="#000000">Stereo</text>
</g>
<!-- nid&#45;23&#45;&gt;nid&#45;08&#45;ampin -->
<g id="edge6" class="edge">
<title>nid&#45;23&#45;&gt;nid&#45;08&#45;ampin</title>
<path fill="none" stroke="#333333" d="M1178.2648,-690C1241.1859,-690 1357.4401,-690 1407.2395,-690"/>
<polygon fill="#333333" stroke="#333333" points="1407.3464,-693.5001 1417.3464,-690 1407.3464,-686.5001 1407.3464,-693.5001"/>
</g>
<!-- nid&#45;09 -->
<g id="node12" class="node">
<title>nid&#45;09</title>
<ellipse fill="none" stroke="#ff0000" cx="1720.095" cy="-1006" rx="36.7079" ry="25.4118"/>
<text text-anchor="middle" x="1720.095" y="-1008.8" font-family="Times,serif" font-size="14.00" fill="#000000">0x09</text>
<text text-anchor="middle" x="1720.095" y="-994.8" font-family="Times,serif" font-size="14.00" fill="#000000">Stereo</text>
</g>
<!-- nid&#45;09&#45;ampin -->
<g id="node13" class="node">
<title>nid&#45;09&#45;ampin</title>
<polygon fill="none" stroke="#c8c8c8" points="1457.8874,-1006 1417.3874,-1024 1417.3874,-988 1457.8874,-1006"/>
</g>
<!-- nid&#45;09&#45;ampin&#45;&gt;nid&#45;09 -->
<g id="edge7" class="edge">
<title>nid&#45;09&#45;ampin&#45;&gt;nid&#45;09</title>
<path fill="none" stroke="#c8c8c8" d="M1458.0953,-1006C1508.7347,-1006 1617.7594,-1006 1677.9817,-1006"/>
<polygon fill="#c8c8c8" stroke="#c8c8c8" points="1678.2981,-1007.7501 1683.2981,-1006 1678.2981,-1004.2501 1678.2981,-1007.7501"/>
</g>
<!-- nid&#45;22 -->
<g id="node14" class="node">
<title>nid&#45;22</title>
<polygon fill="none" stroke="#000000" points="1178.0513,-1006 1157.0342,-1035.2881 1115,-1035.2881 1093.9829,-1006 1115,-976.7119 1157.0342,-976.7119 1178.0513,-1006"/>
<text text-anchor="middle" x="1136.0171" y="-1008.8" font-family="Times,serif" font-size="14.00" fill="#000000">0x22</text>
<text text-anchor="middle" x="1136.0171" y="-994.8" font-family="Times,serif" font-size="14.00" fill="#000000">Stereo</text>
</g>
<!-- nid&#45;22&#45;&gt;nid&#45;09&#45;ampin -->
<g id="edge8" class="edge">
<title>nid&#45;22&#45;&gt;nid&#45;09&#45;ampin</title>
<path fill="none" stroke="#333333" d="M1178.2648,-1006C1241.1859,-1006 1357.4401,-1006 1407.2395,-1006"/>
<polygon fill="#333333" stroke="#333333" points="1407.3464,-1009.5001 1417.3464,-1006 1407.3464,-1002.5001 1407.3464,-1009.5001"/>
</g>
<!-- nid&#45;12&#45;out -->
<g id="node15" class="node">
<title>nid&#45;12&#45;out</title>
<polygon fill="none" stroke="#00ff00" points="471.6381,-1066 328.5741,-1066 328.5741,-1002 471.6381,-1002 471.6381,-1066"/>
<text text-anchor="middle" x="400.1061" y="-1050.8" font-family="Times,serif" font-size="14.00" fill="#000000">0x12</text>
<text text-anchor="middle" x="400.1061" y="-1036.8" font-family="Times,serif" font-size="14.00" fill="#000000">[Fixed] Mic at Int N/A</text>
<text text-anchor="middle" x="400.1061" y="-1022.8" font-family="Times,serif" font-size="14.00" fill="#000000">Stereo</text>
<text text-anchor="middle" x="400.1061" y="-1008.8" font-family="Times,serif" font-size="14.00" fill="#000000">IN</text>
</g>
<!-- nid&#45;12&#45;out&#45;&gt;nid&#45;24 -->
<g id="edge42" class="edge">
<title>nid&#45;12&#45;out&#45;&gt;nid&#45;24</title>
<path fill="none" stroke="#333333" d="M471.0493,-1066.0284C546.585,-1100.1302 664.7637,-1153.4838 735.3855,-1185.3671"/>
<polygon fill="#333333" stroke="#333333" points="734.0476,-1188.6032 744.602,-1189.5281 736.928,-1182.2233 734.0476,-1188.6032"/>
</g>
<!-- nid&#45;23&#45;ampin&#45;18 -->
<g id="node39" class="node">
<title>nid&#45;23&#45;ampin&#45;18</title>
<polygon fill="none" stroke="#0000ff" points="875.1427,-814 753.995,-836 753.995,-792 875.1427,-814"/>
<text text-anchor="middle" x="794.3776" y="-809.8" font-family="Times,serif" font-size="14.00" fill="#000000">4 (0x12)</text>
</g>
<!-- nid&#45;12&#45;out&#45;&gt;nid&#45;23&#45;ampin&#45;18 -->
<g id="edge41" class="edge">
<title>nid&#45;12&#45;out&#45;&gt;nid&#45;23&#45;ampin&#45;18</title>
<path fill="none" stroke="#333333" d="M456.9852,-1001.996C472.0276,-993.3663 488.1965,-983.9406 503.0045,-975 593.1447,-920.576 608.7004,-894.8395 703.0045,-848 715.9348,-841.5777 730.3924,-835.6606 743.9242,-830.625"/>
<polygon fill="#333333" stroke="#333333" points="745.3737,-833.8223 753.5787,-827.1194 742.9846,-827.2426 745.3737,-833.8223"/>
</g>
<!-- nid&#45;13&#45;out -->
<g id="node16" class="node">
<title>nid&#45;13&#45;out</title>
<polygon fill="none" stroke="#00ff00" points="483.8514,-1162 316.3608,-1162 316.3608,-1098 483.8514,-1098 483.8514,-1162"/>
<text text-anchor="middle" x="400.1061" y="-1146.8" font-family="Times,serif" font-size="14.00" fill="#000000">0x13</text>
<text text-anchor="middle" x="400.1061" y="-1132.8" font-family="Times,serif" font-size="14.00" fill="#000000">[N/A] Line Out at Ext N/A</text>
<text text-anchor="middle" x="400.1061" y="-1118.8" font-family="Times,serif" font-size="14.00" fill="#000000">Stereo</text>
<text text-anchor="middle" x="400.1061" y="-1104.8" font-family="Times,serif" font-size="14.00" fill="#000000">IN</text>
</g>
<!-- nid&#45;13&#45;out&#45;&gt;nid&#45;24 -->
<g id="edge43" class="edge">
<title>nid&#45;13&#45;out&#45;&gt;nid&#45;24</title>
<path fill="none" stroke="#c0c0c0" stroke-dasharray="5,2" d="M484.2036,-1147.4905C560.9999,-1163.4625 672.3638,-1186.6237 738.6638,-1200.4127"/>
<polygon fill="#c0c0c0" stroke="#c0c0c0" points="738.004,-1203.8503 748.5072,-1202.4599 739.4294,-1196.997 738.004,-1203.8503"/>
</g>
<!-- nid&#45;22&#45;ampin&#45;19 -->
<g id="node34" class="node">
<title>nid&#45;22&#45;ampin&#45;19</title>
<polygon fill="none" stroke="#c8c8c8" points="875.1427,-1130 753.995,-1152 753.995,-1108 875.1427,-1130"/>
<text text-anchor="middle" x="794.3776" y="-1125.8" font-family="Times,serif" font-size="14.00" fill="#000000">4 (0x13)</text>
</g>
<!-- nid&#45;13&#45;out&#45;&gt;nid&#45;22&#45;ampin&#45;19 -->
<g id="edge31" class="edge">
<title>nid&#45;13&#45;out&#45;&gt;nid&#45;22&#45;ampin&#45;19</title>
<path fill="none" stroke="#333333" d="M484.2036,-1130C562.989,-1130 678.1557,-1130 743.7233,-1130"/>
<polygon fill="#333333" stroke="#333333" points="743.8075,-1133.5001 753.8074,-1130 743.8074,-1126.5001 743.8075,-1133.5001"/>
</g>
<!-- nid&#45;18&#45;out -->
<g id="node20" class="node">
<title>nid&#45;18&#45;out</title>
<polygon fill="none" stroke="#00ff00" points="482.6039,-1250 317.6083,-1250 317.6083,-1186 482.6039,-1186 482.6039,-1250"/>
<text text-anchor="middle" x="400.1061" y="-1234.8" font-family="Times,serif" font-size="14.00" fill="#000000">0x18</text>
<text text-anchor="middle" x="400.1061" y="-1220.8" font-family="Times,serif" font-size="14.00" fill="#000000">[N/A] Speaker at Ext Rear</text>
<text text-anchor="middle" x="400.1061" y="-1206.8" font-family="Times,serif" font-size="14.00" fill="#000000">Stereo</text>
<text text-anchor="middle" x="400.1061" y="-1192.8" font-family="Times,serif" font-size="14.00" fill="#000000">IN Detect</text>
</g>
<!-- nid&#45;18&#45;out&#45;&gt;nid&#45;24 -->
<g id="edge44" class="edge">
<title>nid&#45;18&#45;out&#45;&gt;nid&#45;24</title>
<path fill="none" stroke="#c0c0c0" stroke-dasharray="5,2" d="M482.7583,-1216.7422C560.6709,-1215.5565 675.0942,-1213.8152 741.4343,-1212.8057"/>
<polygon fill="#c0c0c0" stroke="#c0c0c0" points="741.7102,-1216.302 751.6557,-1212.6501 741.6036,-1209.3028 741.7102,-1216.302"/>
</g>
<!-- nid&#45;19&#45;out -->
<g id="node21" class="node">
<title>nid&#45;19&#45;out</title>
<polygon fill="none" stroke="#00ff00" points="474.0207,-602 326.1914,-602 326.1914,-538 474.0207,-538 474.0207,-602"/>
<text text-anchor="middle" x="400.1061" y="-586.8" font-family="Times,serif" font-size="14.00" fill="#000000">0x19</text>
<text text-anchor="middle" x="400.1061" y="-572.8" font-family="Times,serif" font-size="14.00" fill="#000000">[Jack] Mic at Ext Right</text>
<text text-anchor="middle" x="400.1061" y="-558.8" font-family="Times,serif" font-size="14.00" fill="#000000">Stereo</text>
<text text-anchor="middle" x="400.1061" y="-544.8" font-family="Times,serif" font-size="14.00" fill="#000000">IN Detect</text>
</g>
<!-- nid&#45;22&#45;ampin&#45;25 -->
<g id="node30" class="node">
<title>nid&#45;22&#45;ampin&#45;25</title>
<polygon fill="none" stroke="#c8c8c8" points="875.1427,-882 753.995,-904 753.995,-860 875.1427,-882"/>
<text text-anchor="middle" x="794.3776" y="-877.8" font-family="Times,serif" font-size="14.00" fill="#000000">0 (0x19)</text>
</g>
<!-- nid&#45;19&#45;out&#45;&gt;nid&#45;22&#45;ampin&#45;25 -->
<g id="edge27" class="edge">
<title>nid&#45;19&#45;out&#45;&gt;nid&#45;22&#45;ampin&#45;25</title>
<path fill="none" stroke="#333333" d="M473.9748,-599.8062C484.1289,-605.2152 494.1097,-611.2974 503.0045,-618 611.192,-699.5236 591.634,-770.8817 703.0045,-848 715.3284,-856.5337 730.061,-863.2321 744.0607,-868.3437"/>
<polygon fill="#333333" stroke="#333333" points="743.0025,-871.6809 753.5972,-871.632 745.2844,-865.0633 743.0025,-871.6809"/>
</g>
<!-- nid&#45;23&#45;ampin&#45;25 -->
<g id="node35" class="node">
<title>nid&#45;23&#45;ampin&#45;25</title>
<polygon fill="none" stroke="#c8c8c8" points="875.1427,-566 753.995,-588 753.995,-544 875.1427,-566"/>
<text text-anchor="middle" x="794.3776" y="-561.8" font-family="Times,serif" font-size="14.00" fill="#000000">0 (0x19)</text>
</g>
<!-- nid&#45;19&#45;out&#45;&gt;nid&#45;23&#45;ampin&#45;25 -->
<g id="edge37" class="edge">
<title>nid&#45;19&#45;out&#45;&gt;nid&#45;23&#45;ampin&#45;25</title>
<path fill="none" stroke="#333333" d="M474.2655,-569.2476C552.9828,-568.449 675.2563,-567.2085 743.6522,-566.5146"/>
<polygon fill="#333333" stroke="#333333" points="743.7824,-570.0136 753.7463,-566.4122 743.7113,-563.0139 743.7824,-570.0136"/>
</g>
<!-- nid&#45;1a&#45;out -->
<g id="node22" class="node">
<title>nid&#45;1a&#45;out</title>
<polygon fill="none" stroke="#00ff00" points="482.6039,-963 317.6083,-963 317.6083,-899 482.6039,-899 482.6039,-963"/>
<text text-anchor="middle" x="400.1061" y="-947.8" font-family="Times,serif" font-size="14.00" fill="#000000">0x1a</text>
<text text-anchor="middle" x="400.1061" y="-933.8" font-family="Times,serif" font-size="14.00" fill="#000000">[N/A] Speaker at Ext Rear</text>
<text text-anchor="middle" x="400.1061" y="-919.8" font-family="Times,serif" font-size="14.00" fill="#000000">Stereo</text>
<text text-anchor="middle" x="400.1061" y="-905.8" font-family="Times,serif" font-size="14.00" fill="#000000">IN Detect</text>
</g>
<!-- nid&#45;22&#45;ampin&#45;26 -->
<g id="node31" class="node">
<title>nid&#45;22&#45;ampin&#45;26</title>
<polygon fill="none" stroke="#c8c8c8" points="874.1564,-1068 754.4881,-1090 754.4881,-1046 874.1564,-1068"/>
<text text-anchor="middle" x="794.3776" y="-1063.8" font-family="Times,serif" font-size="14.00" fill="#000000">1 (0x1a)</text>
</g>
<!-- nid&#45;1a&#45;out&#45;&gt;nid&#45;22&#45;ampin&#45;26 -->
<g id="edge28" class="edge">
<title>nid&#45;1a&#45;out&#45;&gt;nid&#45;22&#45;ampin&#45;26</title>
<path fill="none" stroke="#333333" d="M482.6317,-960.1187C543.4927,-981.5351 628.3394,-1011.2703 703.0045,-1037 716.5134,-1041.6552 731.1641,-1046.6497 744.696,-1051.2407"/>
<polygon fill="#333333" stroke="#333333" points="743.725,-1054.6071 754.3193,-1054.5017 745.9716,-1047.9774 743.725,-1054.6071"/>
</g>
<!-- nid&#45;23&#45;ampin&#45;26 -->
<g id="node36" class="node">
<title>nid&#45;23&#45;ampin&#45;26</title>
<polygon fill="none" stroke="#c8c8c8" points="874.1564,-752 754.4881,-774 754.4881,-730 874.1564,-752"/>
<text text-anchor="middle" x="794.3776" y="-747.8" font-family="Times,serif" font-size="14.00" fill="#000000">1 (0x1a)</text>
</g>
<!-- nid&#45;1a&#45;out&#45;&gt;nid&#45;23&#45;ampin&#45;26 -->
<g id="edge38" class="edge">
<title>nid&#45;1a&#45;out&#45;&gt;nid&#45;23&#45;ampin&#45;26</title>
<path fill="none" stroke="#333333" d="M459.9836,-898.9234C520.3501,-867.2604 616.69,-818.5597 703.0045,-783 716.3404,-777.5059 731.0419,-772.2008 744.6817,-767.579"/>
<polygon fill="#333333" stroke="#333333" points="746.0119,-770.825 754.3913,-764.3415 743.7977,-764.1844 746.0119,-770.825"/>
</g>
<!-- nid&#45;1b&#45;ampout -->
<g id="node24" class="node">
<title>nid&#45;1b&#45;ampout</title>
<polygon fill="none" stroke="#c8c8c8" points="1163.0171,-224 1122.5171,-242 1122.5171,-206 1163.0171,-224"/>
</g>
<!-- nid&#45;1b&#45;in&#45;&gt;nid&#45;1b&#45;ampout -->
<g id="edge15" class="edge">
<title>nid&#45;1b&#45;in&#45;&gt;nid&#45;1b&#45;ampout</title>
<path fill="none" stroke="#c8c8c8" d="M876.6435,-224C956.7097,-224 1072.6524,-224 1117.4161,-224"/>
<polygon fill="#c8c8c8" stroke="#c8c8c8" points="1117.5151,-225.7501 1122.5151,-224 1117.515,-222.2501 1117.5151,-225.7501"/>
</g>
<!-- nid&#45;1b&#45;out -->
<g id="node25" class="node">
<title>nid&#45;1b&#45;out</title>
<polygon fill="none" stroke="#00ff00" points="482.6039,-844 317.6083,-844 317.6083,-780 482.6039,-780 482.6039,-844"/>
<text text-anchor="middle" x="400.1061" y="-828.8" font-family="Times,serif" font-size="14.00" fill="#000000">0x1b</text>
<text text-anchor="middle" x="400.1061" y="-814.8" font-family="Times,serif" font-size="14.00" fill="#000000">[N/A] Speaker at Ext Rear</text>
<text text-anchor="middle" x="400.1061" y="-800.8" font-family="Times,serif" font-size="14.00" fill="#000000">Stereo</text>
<text text-anchor="middle" x="400.1061" y="-786.8" font-family="Times,serif" font-size="14.00" fill="#000000">IN OUT EAPD Detect</text>
</g>
<!-- nid&#45;22&#45;ampin&#45;27 -->
<g id="node32" class="node">
<title>nid&#45;22&#45;ampin&#45;27</title>
<polygon fill="none" stroke="#c8c8c8" points="875.1427,-1006 753.995,-1028 753.995,-984 875.1427,-1006"/>
<text text-anchor="middle" x="794.3776" y="-1001.8" font-family="Times,serif" font-size="14.00" fill="#000000">2 (0x1b)</text>
</g>
<!-- nid&#45;1b&#45;out&#45;&gt;nid&#45;22&#45;ampin&#45;27 -->
<g id="edge29" class="edge">
<title>nid&#45;1b&#45;out&#45;&gt;nid&#45;22&#45;ampin&#45;27</title>
<path fill="none" stroke="#333333" d="M453.1967,-844.0851C512.6375,-879.1679 612.5156,-935.6293 703.0045,-975 716.1066,-980.7006 730.6216,-986.0439 744.1534,-990.6352"/>
<polygon fill="#333333" stroke="#333333" points="743.2051,-994.0082 753.7986,-993.8398 745.4123,-987.3652 743.2051,-994.0082"/>
</g>
<!-- nid&#45;23&#45;ampin&#45;27 -->
<g id="node37" class="node">
<title>nid&#45;23&#45;ampin&#45;27</title>
<polygon fill="none" stroke="#c8c8c8" points="875.1427,-690 753.995,-712 753.995,-668 875.1427,-690"/>
<text text-anchor="middle" x="794.3776" y="-685.8" font-family="Times,serif" font-size="14.00" fill="#000000">2 (0x1b)</text>
</g>
<!-- nid&#45;1b&#45;out&#45;&gt;nid&#45;23&#45;ampin&#45;27 -->
<g id="edge39" class="edge">
<title>nid&#45;1b&#45;out&#45;&gt;nid&#45;23&#45;ampin&#45;27</title>
<path fill="none" stroke="#333333" d="M482.7583,-786.4248C561.6903,-762.0008 678.0948,-725.9816 744.0135,-705.5842"/>
<polygon fill="#333333" stroke="#333333" points="745.2358,-708.8698 753.7542,-702.5701 743.1665,-702.1827 745.2358,-708.8698"/>
</g>
<!-- nid&#45;1b&#45;ampin -->
<g id="node26" class="node">
<title>nid&#45;1b&#45;ampin</title>
<polygon fill="none" stroke="#0000ff" points="79.6038,-812 39.1038,-830 39.1038,-794 79.6038,-812"/>
</g>
<!-- nid&#45;1b&#45;ampin&#45;&gt;nid&#45;1b&#45;out -->
<g id="edge16" class="edge">
<title>nid&#45;1b&#45;ampin&#45;&gt;nid&#45;1b&#45;out</title>
<path fill="none" stroke="#0000ff" d="M79.8717,-812C129.424,-812 236.1981,-812 312.8387,-812"/>
<polygon fill="#0000ff" stroke="#0000ff" points="312.8424,-813.7501 317.8423,-812 312.8423,-810.2501 312.8424,-813.7501"/>
</g>
<!-- nid&#45;1d&#45;out -->
<g id="node27" class="node">
<title>nid&#45;1d&#45;out</title>
<polygon fill="none" stroke="#00ff00" points="494.9031,-694 305.3091,-694 305.3091,-630 494.9031,-630 494.9031,-694"/>
<text text-anchor="middle" x="400.1061" y="-678.8" font-family="Times,serif" font-size="14.00" fill="#000000">0x1d</text>
<text text-anchor="middle" x="400.1061" y="-664.8" font-family="Times,serif" font-size="14.00" fill="#000000">[N/A] Modem Line at Ext N/A</text>
<text text-anchor="middle" x="400.1061" y="-650.8" font-family="Times,serif" font-size="14.00" fill="#000000">Mono</text>
<text text-anchor="middle" x="400.1061" y="-636.8" font-family="Times,serif" font-size="14.00" fill="#000000">IN</text>
</g>
<!-- nid&#45;22&#45;ampin&#45;29 -->
<g id="node33" class="node">
<title>nid&#45;22&#45;ampin&#45;29</title>
<polygon fill="none" stroke="#c8c8c8" points="875.1427,-944 753.995,-966 753.995,-922 875.1427,-944"/>
<text text-anchor="middle" x="794.3776" y="-939.8" font-family="Times,serif" font-size="14.00" fill="#000000">3 (0x1d)</text>
</g>
<!-- nid&#45;1d&#45;out&#45;&gt;nid&#45;22&#45;ampin&#45;29 -->
<g id="edge30" class="edge">
<title>nid&#45;1d&#45;out&#45;&gt;nid&#45;22&#45;ampin&#45;29</title>
<path fill="none" stroke="#333333" d="M430.7885,-694.1393C482.4618,-746.6142 592.1112,-851.0395 703.0045,-913 715.7134,-920.1009 730.3238,-925.9532 744.08,-930.5863"/>
<polygon fill="#333333" stroke="#333333" points="743.315,-934.0168 753.9063,-933.7449 745.4572,-927.3526 743.315,-934.0168"/>
</g>
<!-- nid&#45;23&#45;ampin&#45;29 -->
<g id="node38" class="node">
<title>nid&#45;23&#45;ampin&#45;29</title>
<polygon fill="none" stroke="#c8c8c8" points="875.1427,-628 753.995,-650 753.995,-606 875.1427,-628"/>
<text text-anchor="middle" x="794.3776" y="-623.8" font-family="Times,serif" font-size="14.00" fill="#000000">3 (0x1d)</text>
</g>
<!-- nid&#45;1d&#45;out&#45;&gt;nid&#45;23&#45;ampin&#45;29 -->
<g id="edge40" class="edge">
<title>nid&#45;1d&#45;out&#45;&gt;nid&#45;23&#45;ampin&#45;29</title>
<path fill="none" stroke="#333333" d="M495.0457,-653.8129C573.2892,-647.0656 681.2209,-637.7581 743.8248,-632.3594"/>
<polygon fill="#333333" stroke="#333333" points="744.1836,-635.8416 753.8459,-631.4952 743.5821,-628.8674 744.1836,-635.8416"/>
</g>
<!-- nid&#45;22&#45;ampin&#45;25&#45;&gt;nid&#45;22 -->
<g id="edge22" class="edge">
<title>nid&#45;22&#45;ampin&#45;25&#45;&gt;nid&#45;22</title>
<path fill="none" stroke="#c8c8c8" d="M823.258,-891.5623C841.2729,-897.5854 864.9151,-905.596 885.7506,-913 961.3354,-939.8593 1049.0958,-972.9038 1098.0296,-991.4969"/>
<polygon fill="#c8c8c8" stroke="#c8c8c8" points="1097.6363,-993.2195 1102.9318,-993.3606 1098.8801,-989.948 1097.6363,-993.2195"/>
</g>
<!-- nid&#45;22&#45;ampin&#45;26&#45;&gt;nid&#45;22 -->
<g id="edge23" class="edge">
<title>nid&#45;22&#45;ampin&#45;26&#45;&gt;nid&#45;22</title>
<path fill="none" stroke="#c8c8c8" d="M834.5726,-1060.7055C899.5536,-1048.9129 1027.0897,-1025.7679 1093.5169,-1013.7128"/>
<polygon fill="#c8c8c8" stroke="#c8c8c8" points="1093.9748,-1015.4084 1098.582,-1012.7936 1093.3498,-1011.9647 1093.9748,-1015.4084"/>
</g>
<!-- nid&#45;22&#45;ampin&#45;27&#45;&gt;nid&#45;22 -->
<g id="edge24" class="edge">
<title>nid&#45;22&#45;ampin&#45;27&#45;&gt;nid&#45;22</title>
<path fill="none" stroke="#c8c8c8" d="M875.3414,-1006C941.6714,-1006 1033.2709,-1006 1088.3657,-1006"/>
<polygon fill="#c8c8c8" stroke="#c8c8c8" points="1088.5815,-1007.7501 1093.5814,-1006 1088.5814,-1004.2501 1088.5815,-1007.7501"/>
</g>
<!-- nid&#45;22&#45;ampin&#45;29&#45;&gt;nid&#45;22 -->
<g id="edge25" class="edge">
<title>nid&#45;22&#45;ampin&#45;29&#45;&gt;nid&#45;22</title>
<path fill="none" stroke="#c8c8c8" d="M834.9097,-951.3557C900.0254,-963.1727 1027.3278,-986.2753 1093.6133,-998.3047"/>
<polygon fill="#c8c8c8" stroke="#c8c8c8" points="1093.4354,-1000.0509 1098.6675,-999.2219 1094.0604,-996.6071 1093.4354,-1000.0509"/>
</g>
<!-- nid&#45;22&#45;ampin&#45;19&#45;&gt;nid&#45;22 -->
<g id="edge26" class="edge">
<title>nid&#45;22&#45;ampin&#45;19&#45;&gt;nid&#45;22</title>
<path fill="none" stroke="#c8c8c8" d="M823.258,-1120.4377C841.2729,-1114.4146 864.9151,-1106.404 885.7506,-1099 961.3354,-1072.1407 1049.0958,-1039.0962 1098.0296,-1020.5031"/>
<polygon fill="#c8c8c8" stroke="#c8c8c8" points="1098.8801,-1022.052 1102.9318,-1018.6394 1097.6363,-1018.7805 1098.8801,-1022.052"/>
</g>
<!-- nid&#45;23&#45;ampin&#45;25&#45;&gt;nid&#45;23 -->
<g id="edge32" class="edge">
<title>nid&#45;23&#45;ampin&#45;25&#45;&gt;nid&#45;23</title>
<path fill="none" stroke="#c8c8c8" d="M823.258,-575.5623C841.2729,-581.5854 864.9151,-589.596 885.7506,-597 961.3354,-623.8593 1049.0958,-656.9038 1098.0296,-675.4969"/>
<polygon fill="#c8c8c8" stroke="#c8c8c8" points="1097.6363,-677.2195 1102.9318,-677.3606 1098.8801,-673.948 1097.6363,-677.2195"/>
</g>
<!-- nid&#45;23&#45;ampin&#45;26&#45;&gt;nid&#45;23 -->
<g id="edge33" class="edge">
<title>nid&#45;23&#45;ampin&#45;26&#45;&gt;nid&#45;23</title>
<path fill="none" stroke="#c8c8c8" d="M834.5726,-744.7055C899.5536,-732.9129 1027.0897,-709.7679 1093.5169,-697.7128"/>
<polygon fill="#c8c8c8" stroke="#c8c8c8" points="1093.9748,-699.4084 1098.582,-696.7936 1093.3498,-695.9647 1093.9748,-699.4084"/>
</g>
<!-- nid&#45;23&#45;ampin&#45;27&#45;&gt;nid&#45;23 -->
<g id="edge34" class="edge">
<title>nid&#45;23&#45;ampin&#45;27&#45;&gt;nid&#45;23</title>
<path fill="none" stroke="#c8c8c8" d="M875.3414,-690C941.6714,-690 1033.2709,-690 1088.3657,-690"/>
<polygon fill="#c8c8c8" stroke="#c8c8c8" points="1088.5815,-691.7501 1093.5814,-690 1088.5814,-688.2501 1088.5815,-691.7501"/>
</g>
<!-- nid&#45;23&#45;ampin&#45;29&#45;&gt;nid&#45;23 -->
<g id="edge35" class="edge">
<title>nid&#45;23&#45;ampin&#45;29&#45;&gt;nid&#45;23</title>
<path fill="none" stroke="#c8c8c8" d="M834.9097,-635.3557C900.0254,-647.1727 1027.3278,-670.2753 1093.6133,-682.3047"/>
<polygon fill="#c8c8c8" stroke="#c8c8c8" points="1093.4354,-684.0509 1098.6675,-683.2219 1094.0604,-680.6071 1093.4354,-684.0509"/>
</g>
<!-- nid&#45;23&#45;ampin&#45;18&#45;&gt;nid&#45;23 -->
<g id="edge36" class="edge">
<title>nid&#45;23&#45;ampin&#45;18&#45;&gt;nid&#45;23</title>
<path fill="none" stroke="#0000ff" d="M823.258,-804.4377C841.2729,-798.4146 864.9151,-790.404 885.7506,-783 961.3354,-756.1407 1049.0958,-723.0962 1098.0296,-704.5031"/>
<polygon fill="#0000ff" stroke="#0000ff" points="1098.8801,-706.052 1102.9318,-702.6394 1097.6363,-702.7805 1098.8801,-706.052"/>
</g>
</g>
</svg>
